<svg xmlns="http://www.w3.org/2000/svg" version="1.1" baseProfile="full" style="position: absolute; left: 0px; top: 0px;" width="1024" height="1024">
<g>
<rect width="1024" height="1024" x="0" y="0" id="0" style="fill: transparent;">
</rect>
</g>
<g>
<path d="M -1 -1 L 1 -1 L 1 1 L -1 1 L -1 -1 Z" fill="rgba(0,0,0,1)" fill-opacity="1" stroke="none" transform="matrix(13.473684310913086,0,0,13.473684310913086,102.4000015258789,102.4000015258789)" clip-path="none">
</path>
<path d="M -1 -1 L 1 -1 L 1 1 L -1 1 L -1 -1 Z" fill="rgba(0,0,0,1)" fill-opacity="1" stroke="none" transform="matrix(13.473684310913086,0,0,13.473684310913086,128.8258056640625,102.4000015258789)" clip-path="none">
</path>
<path d="M -1 -1 L 1 -1 L 1 1 L -1 1 L -1 -1 Z" fill="rgba(0,0,0,1)" fill-opacity="1" stroke="none" transform="matrix(13.473684310913086,0,0,13.473684310913086,155.25161743164062,102.4000015258789)" clip-path="none">
</path>
<path d="M -1 -1 L 1 -1 L 1 1 L -1 1 L -1 -1 Z" fill="rgba(0,0,0,1)" fill-opacity="1" stroke="none" transform="matrix(13.473684310913086,0,0,13.473684310913086,181.6774139404297,102.4000015258789)" clip-path="none">
</path>
<path d="M -1 -1 L 1 -1 L 1 1 L -1 1 L -1 -1 Z" fill="rgba(0,0,0,1)" fill-opacity="1" stroke="none" transform="matrix(13.473684310913086,0,0,13.473684310913086,208.1032257080078,102.4000015258789)" clip-path="none">
</path>
<path d="M -1 -1 L 1 -1 L 1 1 L -1 1 L -1 -1 Z" fill="rgba(0,0,0,1)" fill-opacity="1" stroke="none" transform="matrix(13.473684310913086,0,0,13.473684310913086,234.52903747558594,102.4000015258789)" clip-path="none">
</path>
<path d="M -1 -1 L 1 -1 L 1 1 L -1 1 L -1 -1 Z" fill="rgba(0,0,0,1)" fill-opacity="1" stroke="none" transform="matrix(13.473684310913086,0,0,13.473684310913086,260.954833984375,102.4000015258789)" clip-path="none">
</path>
<path d="M -1 -1 L 1 -1 L 1 1 L -1 1 L -1 -1 Z" fill="rgba(0,0,0,1)" fill-opacity="1" stroke="none" transform="matrix(13.473684310913086,0,0,13.473684310913086,287.3806457519531,102.4000015258789)" clip-path="none">
</path>
<path d="M -1 -1 L 1 -1 L 1 1 L -1 1 L -1 -1 Z" fill="rgba(0,0,0,1)" fill-opacity="1" stroke="none" transform="matrix(13.473684310913086,0,0,13.473684310913086,313.80645751953125,102.4000015258789)" clip-path="none">
</path>
<path d="M -1 -1 L 1 -1 L 1 1 L -1 1 L -1 -1 Z" fill="rgba(0,0,0,1)" fill-opacity="1" stroke="none" transform="matrix(13.473684310913086,0,0,13.473684310913086,340.2322692871094,102.4000015258789)" clip-path="none">
</path>
<path d="M -1 -1 L 1 -1 L 1 1 L -1 1 L -1 -1 Z" fill="rgba(0,0,0,1)" fill-opacity="1" stroke="none" transform="matrix(13.473684310913086,0,0,13.473684310913086,366.6580505371094,102.4000015258789)" clip-path="none">
</path>
<path d="M -1 -1 L 1 -1 L 1 1 L -1 1 L -1 -1 Z" fill="rgba(0,0,0,1)" fill-opacity="1" stroke="none" transform="matrix(13.473684310913086,0,0,13.473684310913086,393.0838623046875,102.4000015258789)" clip-path="none">
</path>
<path d="M -1 -1 L 1 -1 L 1 1 L -1 1 L -1 -1 Z" fill="rgba(0,0,0,1)" fill-opacity="1" stroke="none" transform="matrix(13.473684310913086,0,0,13.473684310913086,419.5096740722656,102.4000015258789)" clip-path="none">
</path>
<path d="M -1 -1 L 1 -1 L 1 1 L -1 1 L -1 -1 Z" fill="rgba(0,0,0,1)" fill-opacity="1" stroke="none" transform="matrix(13.473684310913086,0,0,13.473684310913086,445.93548583984375,102.4000015258789)" clip-path="none">
</path>
<path d="M -1 -1 L 1 -1 L 1 1 L -1 1 L -1 -1 Z" fill="rgba(0,0,0,1)" fill-opacity="1" stroke="none" transform="matrix(13.473684310913086,0,0,13.473684310913086,472.3612976074219,102.4000015258789)" clip-path="none">
</path>
<path d="M -1 -1 L 1 -1 L 1 1 L -1 1 L -1 -1 Z" fill="rgba(0,0,0,1)" fill-opacity="1" stroke="none" transform="matrix(13.473684310913086,0,0,13.473684310913086,498.7870788574219,102.4000015258789)" clip-path="none">
</path>
<path d="M -1 -1 L 1 -1 L 1 1 L -1 1 L -1 -1 Z" fill="rgba(0,0,0,1)" fill-opacity="1" stroke="none" transform="matrix(13.473684310913086,0,0,13.473684310913086,525.212890625,102.4000015258789)" clip-path="none">
</path>
<path d="M -1 -1 L 1 -1 L 1 1 L -1 1 L -1 -1 Z" fill="rgba(0,0,0,1)" fill-opacity="1" stroke="none" transform="matrix(13.473684310913086,0,0,13.473684310913086,551.6387329101562,102.4000015258789)" clip-path="none">
</path>
<path d="M -1 -1 L 1 -1 L 1 1 L -1 1 L -1 -1 Z" fill="rgba(0,0,0,1)" fill-opacity="1" stroke="none" transform="matrix(13.473684310913086,0,0,13.473684310913086,578.0645141601562,102.4000015258789)" clip-path="none">
</path>
<path d="M -1 -1 L 1 -1 L 1 1 L -1 1 L -1 -1 Z" fill="rgba(0,0,0,1)" fill-opacity="1" stroke="none" transform="matrix(13.473684310913086,0,0,13.473684310913086,604.4902954101562,102.4000015258789)" clip-path="none">
</path>
<path d="M -1 -1 L 1 -1 L 1 1 L -1 1 L -1 -1 Z" fill="rgba(0,0,0,1)" fill-opacity="1" stroke="none" transform="matrix(13.473684310913086,0,0,13.473684310913086,630.9161376953125,102.4000015258789)" clip-path="none">
</path>
<path d="M -1 -1 L 1 -1 L 1 1 L -1 1 L -1 -1 Z" fill="rgba(0,0,0,1)" fill-opacity="1" stroke="none" transform="matrix(13.473684310913086,0,0,13.473684310913086,657.3419189453125,102.4000015258789)" clip-path="none">
</path>
<path d="M -1 -1 L 1 -1 L 1 1 L -1 1 L -1 -1 Z" fill="rgba(0,0,0,1)" fill-opacity="1" stroke="none" transform="matrix(13.473684310913086,0,0,13.473684310913086,683.7677612304688,102.4000015258789)" clip-path="none">
</path>
<path d="M -1 -1 L 1 -1 L 1 1 L -1 1 L -1 -1 Z" fill="rgba(0,0,0,1)" fill-opacity="1" stroke="none" transform="matrix(13.473684310913086,0,0,13.473684310913086,710.1935424804688,102.4000015258789)" clip-path="none">
</path>
<path d="M -1 -1 L 1 -1 L 1 1 L -1 1 L -1 -1 Z" fill="rgba(0,0,0,1)" fill-opacity="1" stroke="none" transform="matrix(13.473684310913086,0,0,13.473684310913086,736.6193237304688,102.4000015258789)" clip-path="none">
</path>
<path d="M -1 -1 L 1 -1 L 1 1 L -1 1 L -1 -1 Z" fill="rgba(0,0,0,1)" fill-opacity="1" stroke="none" transform="matrix(13.473684310913086,0,0,13.473684310913086,763.045166015625,102.4000015258789)" clip-path="none">
</path>
<path d="M -1 -1 L 1 -1 L 1 1 L -1 1 L -1 -1 Z" fill="rgba(0,0,0,1)" fill-opacity="1" stroke="none" transform="matrix(13.473684310913086,0,0,13.473684310913086,789.470947265625,102.4000015258789)" clip-path="none">
</path>
<path d="M -1 -1 L 1 -1 L 1 1 L -1 1 L -1 -1 Z" fill="rgba(0,0,0,1)" fill-opacity="1" stroke="none" transform="matrix(13.473684310913086,0,0,13.473684310913086,815.8967895507812,102.4000015258789)" clip-path="none">
</path>
<path d="M -1 -1 L 1 -1 L 1 1 L -1 1 L -1 -1 Z" fill="rgba(0,0,0,1)" fill-opacity="1" stroke="none" transform="matrix(13.473684310913086,0,0,13.473684310913086,842.3225708007812,102.4000015258789)" clip-path="none">
</path>
<path d="M -1 -1 L 1 -1 L 1 1 L -1 1 L -1 -1 Z" fill="rgba(0,0,0,1)" fill-opacity="1" stroke="none" transform="matrix(13.473684310913086,0,0,13.473684310913086,868.7483520507812,102.4000015258789)" clip-path="none">
</path>
<path d="M -1 -1 L 1 -1 L 1 1 L -1 1 L -1 -1 Z" fill="rgba(0,0,0,1)" fill-opacity="1" stroke="none" transform="matrix(13.473684310913086,0,0,13.473684310913086,895.1741943359375,102.4000015258789)" clip-path="none">
</path>
<path d="M -1 -1 L 1 -1 L 1 1 L -1 1 L -1 -1 Z" fill="rgba(0,0,0,1)" fill-opacity="1" stroke="none" transform="matrix(13.473684310913086,0,0,13.473684310913086,921.5999755859375,102.4000015258789)" clip-path="none">
</path>
<path d="M -1 -1 L 1 -1 L 1 1 L -1 1 L -1 -1 Z" fill="rgba(0,0,0,1)" fill-opacity="1" stroke="none" transform="matrix(13.473684310913086,0,0,13.473684310913086,102.4000015258789,128.8258056640625)" clip-path="none">
</path>
<path d="M -1 -1 L 1 -1 L 1 1 L -1 1 L -1 -1 Z" fill="rgba(0,0,0,1)" fill-opacity="1" stroke="none" transform="matrix(13.473684310913086,0,0,13.473684310913086,921.5999755859375,128.8258056640625)" clip-path="none">
</path>
<path d="M -1 -1 L 1 -1 L 1 1 L -1 1 L -1 -1 Z" fill="rgba(0,0,0,1)" fill-opacity="1" stroke="none" transform="matrix(13.473684310913086,0,0,13.473684310913086,102.4000015258789,155.25161743164062)" clip-path="none">
</path>
<path d="M -1 -1 L 1 -1 L 1 1 L -1 1 L -1 -1 Z" fill="rgba(0,0,0,1)" fill-opacity="1" stroke="none" transform="matrix(13.473684310913086,0,0,13.473684310913086,921.5999755859375,155.25161743164062)" clip-path="none">
</path>
<path d="M -1 -1 L 1 -1 L 1 1 L -1 1 L -1 -1 Z" fill="rgba(0,0,0,1)" fill-opacity="1" stroke="none" transform="matrix(13.473684310913086,0,0,13.473684310913086,102.4000015258789,181.6774139404297)" clip-path="none">
</path>
<path d="M -1 -1 L 1 -1 L 1 1 L -1 1 L -1 -1 Z" fill="rgba(0,0,0,1)" fill-opacity="1" stroke="none" transform="matrix(13.473684310913086,0,0,13.473684310913086,921.5999755859375,181.6774139404297)" clip-path="none">
</path>
<path d="M -1 -1 L 1 -1 L 1 1 L -1 1 L -1 -1 Z" fill="rgba(0,0,0,1)" fill-opacity="1" stroke="none" transform="matrix(13.473684310913086,0,0,13.473684310913086,102.4000015258789,208.1032257080078)" clip-path="none">
</path>
<path d="M -1 -1 L 1 -1 L 1 1 L -1 1 L -1 -1 Z" fill="rgba(0,0,0,1)" fill-opacity="1" stroke="none" transform="matrix(13.473684310913086,0,0,13.473684310913086,921.5999755859375,208.1032257080078)" clip-path="none">
</path>
<path d="M -1 -1 L 1 -1 L 1 1 L -1 1 L -1 -1 Z" fill="rgba(0,0,0,1)" fill-opacity="1" stroke="none" transform="matrix(13.473684310913086,0,0,13.473684310913086,102.4000015258789,234.52903747558594)" clip-path="none">
</path>
<path d="M -1 -1 L 1 -1 L 1 1 L -1 1 L -1 -1 Z" fill="rgba(0,0,0,1)" fill-opacity="1" stroke="none" transform="matrix(13.473684310913086,0,0,13.473684310913086,921.5999755859375,234.52903747558594)" clip-path="none">
</path>
<path d="M -1 -1 L 1 -1 L 1 1 L -1 1 L -1 -1 Z" fill="rgba(0,0,0,1)" fill-opacity="1" stroke="none" transform="matrix(13.473684310913086,0,0,13.473684310913086,102.4000015258789,260.954833984375)" clip-path="none">
</path>
<path d="M -1 -1 L 1 -1 L 1 1 L -1 1 L -1 -1 Z" fill="rgba(0,0,0,1)" fill-opacity="1" stroke="none" transform="matrix(13.473684310913086,0,0,13.473684310913086,921.5999755859375,260.954833984375)" clip-path="none">
</path>
<path d="M -1 -1 L 1 -1 L 1 1 L -1 1 L -1 -1 Z" fill="rgba(0,0,0,1)" fill-opacity="1" stroke="none" transform="matrix(13.473684310913086,0,0,13.473684310913086,102.4000015258789,287.3806457519531)" clip-path="none">
</path>
<path d="M -1 -1 L 1 -1 L 1 1 L -1 1 L -1 -1 Z" fill="rgba(0,0,0,1)" fill-opacity="1" stroke="none" transform="matrix(13.473684310913086,0,0,13.473684310913086,260.954833984375,287.3806457519531)" clip-path="none">
</path>
<path d="M -1 -1 L 1 -1 L 1 1 L -1 1 L -1 -1 Z" fill="rgba(0,0,0,1)" fill-opacity="1" stroke="none" transform="matrix(13.473684310913086,0,0,13.473684310913086,921.5999755859375,287.3806457519531)" clip-path="none">
</path>
<path d="M -1 -1 L 1 -1 L 1 1 L -1 1 L -1 -1 Z" fill="rgba(0,0,0,1)" fill-opacity="1" stroke="none" transform="matrix(13.473684310913086,0,0,13.473684310913086,102.4000015258789,313.80645751953125)" clip-path="none">
</path>
<path d="M -1 -1 L 1 -1 L 1 1 L -1 1 L -1 -1 Z" fill="rgba(0,0,0,1)" fill-opacity="1" stroke="none" transform="matrix(13.473684310913086,0,0,13.473684310913086,921.5999755859375,313.80645751953125)" clip-path="none">
</path>
<path d="M -1 -1 L 1 -1 L 1 1 L -1 1 L -1 -1 Z" fill="rgba(0,0,0,1)" fill-opacity="1" stroke="none" transform="matrix(13.473684310913086,0,0,13.473684310913086,102.4000015258789,340.2322692871094)" clip-path="none">
</path>
<path d="M -1 -1 L 1 -1 L 1 1 L -1 1 L -1 -1 Z" fill="rgba(0,0,0,1)" fill-opacity="1" stroke="none" transform="matrix(13.473684310913086,0,0,13.473684310913086,921.5999755859375,340.2322692871094)" clip-path="none">
</path>
<path d="M -1 -1 L 1 -1 L 1 1 L -1 1 L -1 -1 Z" fill="rgba(0,0,0,1)" fill-opacity="1" stroke="none" transform="matrix(13.473684310913086,0,0,13.473684310913086,102.4000015258789,366.6580505371094)" clip-path="none">
</path>
<path d="M -1 -1 L 1 -1 L 1 1 L -1 1 L -1 -1 Z" fill="rgba(231,76,60,1)" fill-opacity="1" stroke="none" transform="matrix(13.473684310913086,0,0,13.473684310913086,128.8258056640625,366.6580505371094)" clip-path="none">
</path>
<path d="M -1 -1 L 1 -1 L 1 1 L -1 1 L -1 -1 Z" fill="rgba(0,0,0,1)" fill-opacity="1" stroke="none" transform="matrix(13.473684310913086,0,0,13.473684310913086,445.93548583984375,366.6580505371094)" clip-path="none">
</path>
<path d="M -1 -1 L 1 -1 L 1 1 L -1 1 L -1 -1 Z" fill="rgba(0,0,0,1)" fill-opacity="1" stroke="none" transform="matrix(13.473684310913086,0,0,13.473684310913086,472.3612976074219,366.6580505371094)" clip-path="none">
</path>
<path d="M -1 -1 L 1 -1 L 1 1 L -1 1 L -1 -1 Z" fill="rgba(0,0,0,1)" fill-opacity="1" stroke="none" transform="matrix(13.473684310913086,0,0,13.473684310913086,921.5999755859375,366.6580505371094)" clip-path="none">
</path>
<path d="M -1 -1 L 1 -1 L 1 1 L -1 1 L -1 -1 Z" fill="rgba(0,0,0,1)" fill-opacity="1" stroke="none" transform="matrix(13.473684310913086,0,0,13.473684310913086,102.4000015258789,393.0838623046875)" clip-path="none">
</path>
<path d="M -1 -1 L 1 -1 L 1 1 L -1 1 L -1 -1 Z" fill="rgba(231,76,60,1)" fill-opacity="1" stroke="none" transform="matrix(13.473684310913086,0,0,13.473684310913086,155.25161743164062,393.0838623046875)" clip-path="none">
</path>
<path d="M -1 -1 L 1 -1 L 1 1 L -1 1 L -1 -1 Z" fill="rgba(0,0,0,1)" fill-opacity="1" stroke="none" transform="matrix(13.473684310913086,0,0,13.473684310913086,445.93548583984375,393.0838623046875)" clip-path="none">
</path>
<path d="M -1 -1 L 1 -1 L 1 1 L -1 1 L -1 -1 Z" fill="rgba(0,0,0,1)" fill-opacity="1" stroke="none" transform="matrix(13.473684310913086,0,0,13.473684310913086,921.5999755859375,393.0838623046875)" clip-path="none">
</path>
<path d="M -1 -1 L 1 -1 L 1 1 L -1 1 L -1 -1 Z" fill="rgba(0,0,0,1)" fill-opacity="1" stroke="none" transform="matrix(13.473684310913086,0,0,13.473684310913086,102.4000015258789,419.5096740722656)" clip-path="none">
</path>
<path d="M -1 -1 L 1 -1 L 1 1 L -1 1 L -1 -1 Z" fill="rgba(0,64,255,1)" fill-opacity="1" stroke="none" transform="matrix(13.473684310913086,0,0,13.473684310913086,181.6774139404297,419.5096740722656)" clip-path="none">
</path>
<path d="M -1 -1 L 1 -1 L 1 1 L -1 1 L -1 -1 Z" fill="rgba(0,0,0,1)" fill-opacity="1" stroke="none" transform="matrix(13.473684310913086,0,0,13.473684310913086,921.5999755859375,419.5096740722656)" clip-path="none">
</path>
<path d="M -1 -1 L 1 -1 L 1 1 L -1 1 L -1 -1 Z" fill="rgba(0,0,0,1)" fill-opacity="1" stroke="none" transform="matrix(13.473684310913086,0,0,13.473684310913086,102.4000015258789,445.93548583984375)" clip-path="none">
</path>
<path d="M -1 -1 L 1 -1 L 1 1 L -1 1 L -1 -1 Z" fill="rgba(231,76,60,1)" fill-opacity="1" stroke="none" transform="matrix(13.473684310913086,0,0,13.473684310913086,208.1032257080078,445.93548583984375)" clip-path="none">
</path>
<path d="M -1 -1 L 1 -1 L 1 1 L -1 1 L -1 -1 Z" fill="rgba(0,0,0,1)" fill-opacity="1" stroke="none" transform="matrix(13.473684310913086,0,0,13.473684310913086,921.5999755859375,445.93548583984375)" clip-path="none">
</path>
<path d="M -1 -1 L 1 -1 L 1 1 L -1 1 L -1 -1 Z" fill="rgba(0,0,0,1)" fill-opacity="1" stroke="none" transform="matrix(13.473684310913086,0,0,13.473684310913086,102.4000015258789,472.3612976074219)" clip-path="none">
</path>
<path d="M -1 -1 L 1 -1 L 1 1 L -1 1 L -1 -1 Z" fill="rgba(0,64,255,1)" fill-opacity="1" stroke="none" transform="matrix(13.473684310913086,0,0,13.473684310913086,234.52903747558594,472.3612976074219)" clip-path="none">
</path>
<path d="M -1 -1 L 1 -1 L 1 1 L -1 1 L -1 -1 Z" fill="rgba(0,0,0,1)" fill-opacity="1" stroke="none" transform="matrix(13.473684310913086,0,0,13.473684310913086,921.5999755859375,472.3612976074219)" clip-path="none">
</path>
<path d="M -1 -1 L 1 -1 L 1 1 L -1 1 L -1 -1 Z" fill="rgba(0,0,0,1)" fill-opacity="1" stroke="none" transform="matrix(13.473684310913086,0,0,13.473684310913086,102.4000015258789,498.7870788574219)" clip-path="none">
</path>
<path d="M -1 -1 L 1 -1 L 1 1 L -1 1 L -1 -1 Z" fill="rgba(231,76,60,1)" fill-opacity="1" stroke="none" transform="matrix(13.473684310913086,0,0,13.473684310913086,260.954833984375,498.7870788574219)" clip-path="none">
</path>
<path d="M -1 -1 L 1 -1 L 1 1 L -1 1 L -1 -1 Z" fill="rgba(0,0,0,1)" fill-opacity="1" stroke="none" transform="matrix(13.473684310913086,0,0,13.473684310913086,710.1935424804688,498.7870788574219)" clip-path="none">
</path>
<path d="M -1 -1 L 1 -1 L 1 1 L -1 1 L -1 -1 Z" fill="rgba(0,0,0,1)" fill-opacity="1" stroke="none" transform="matrix(13.473684310913086,0,0,13.473684310913086,921.5999755859375,498.7870788574219)" clip-path="none">
</path>
<path d="M -1 -1 L 1 -1 L 1 1 L -1 1 L -1 -1 Z" fill="rgba(0,0,0,1)" fill-opacity="1" stroke="none" transform="matrix(13.473684310913086,0,0,13.473684310913086,102.4000015258789,525.212890625)" clip-path="none">
</path>
<path d="M -1 -1 L 1 -1 L 1 1 L -1 1 L -1 -1 Z" fill="rgba(231,76,60,1)" fill-opacity="1" stroke="none" transform="matrix(13.473684310913086,0,0,13.473684310913086,287.3806457519531,525.212890625)" clip-path="none">
</path>
<path d="M -1 -1 L 1 -1 L 1 1 L -1 1 L -1 -1 Z" fill="rgba(0,0,0,1)" fill-opacity="1" stroke="none" transform="matrix(13.473684310913086,0,0,13.473684310913086,683.7677612304688,525.212890625)" clip-path="none">
</path>
<path d="M -1 -1 L 1 -1 L 1 1 L -1 1 L -1 -1 Z" fill="rgba(0,0,0,1)" fill-opacity="1" stroke="none" transform="matrix(13.473684310913086,0,0,13.473684310913086,710.1935424804688,525.212890625)" clip-path="none">
</path>
<path d="M -1 -1 L 1 -1 L 1 1 L -1 1 L -1 -1 Z" fill="rgba(0,0,0,1)" fill-opacity="1" stroke="none" transform="matrix(13.473684310913086,0,0,13.473684310913086,921.5999755859375,525.212890625)" clip-path="none">
</path>
<path d="M -1 -1 L 1 -1 L 1 1 L -1 1 L -1 -1 Z" fill="rgba(0,0,0,1)" fill-opacity="1" stroke="none" transform="matrix(13.473684310913086,0,0,13.473684310913086,102.4000015258789,551.6387329101562)" clip-path="none">
</path>
<path d="M -1 -1 L 1 -1 L 1 1 L -1 1 L -1 -1 Z" fill="rgba(231,76,60,1)" fill-opacity="1" stroke="none" transform="matrix(13.473684310913086,0,0,13.473684310913086,313.80645751953125,551.6387329101562)" clip-path="none">
</path>
<path d="M -1 -1 L 1 -1 L 1 1 L -1 1 L -1 -1 Z" fill="rgba(0,0,0,1)" fill-opacity="1" stroke="none" transform="matrix(13.473684310913086,0,0,13.473684310913086,710.1935424804688,551.6387329101562)" clip-path="none">
</path>
<path d="M -1 -1 L 1 -1 L 1 1 L -1 1 L -1 -1 Z" fill="rgba(0,0,0,1)" fill-opacity="1" stroke="none" transform="matrix(13.473684310913086,0,0,13.473684310913086,921.5999755859375,551.6387329101562)" clip-path="none">
</path>
<path d="M -1 -1 L 1 -1 L 1 1 L -1 1 L -1 -1 Z" fill="rgba(0,0,0,1)" fill-opacity="1" stroke="none" transform="matrix(13.473684310913086,0,0,13.473684310913086,102.4000015258789,578.0645141601562)" clip-path="none">
</path>
<path d="M -1 -1 L 1 -1 L 1 1 L -1 1 L -1 -1 Z" fill="rgba(0,64,255,1)" fill-opacity="1" stroke="none" transform="matrix(13.473684310913086,0,0,13.473684310913086,340.2322692871094,578.0645141601562)" clip-path="none">
</path>
<path d="M -1 -1 L 1 -1 L 1 1 L -1 1 L -1 -1 Z" fill="rgba(0,64,255,1)" fill-opacity="1" stroke="none" transform="matrix(13.473684310913086,0,0,13.473684310913086,366.6580505371094,578.0645141601562)" clip-path="none">
</path>
<path d="M -1 -1 L 1 -1 L 1 1 L -1 1 L -1 -1 Z" fill="rgba(0,0,0,1)" fill-opacity="1" stroke="none" transform="matrix(13.473684310913086,0,0,13.473684310913086,710.1935424804688,578.0645141601562)" clip-path="none">
</path>
<path d="M -1 -1 L 1 -1 L 1 1 L -1 1 L -1 -1 Z" fill="rgba(0,0,0,1)" fill-opacity="1" stroke="none" transform="matrix(13.473684310913086,0,0,13.473684310913086,921.5999755859375,578.0645141601562)" clip-path="none">
</path>
<path d="M -1 -1 L 1 -1 L 1 1 L -1 1 L -1 -1 Z" fill="rgba(0,0,0,1)" fill-opacity="1" stroke="none" transform="matrix(13.473684310913086,0,0,13.473684310913086,102.4000015258789,604.4902954101562)" clip-path="none">
</path>
<path d="M -1 -1 L 1 -1 L 1 1 L -1 1 L -1 -1 Z" fill="rgba(0,0,0,1)" fill-opacity="1" stroke="none" transform="matrix(13.473684310913086,0,0,13.473684310913086,366.6580505371094,604.4902954101562)" clip-path="none">
</path>
<path d="M -1 -1 L 1 -1 L 1 1 L -1 1 L -1 -1 Z" fill="rgba(0,64,255,1)" fill-opacity="1" stroke="none" transform="matrix(13.473684310913086,0,0,13.473684310913086,393.0838623046875,604.4902954101562)" clip-path="none">
</path>
<path d="M -1 -1 L 1 -1 L 1 1 L -1 1 L -1 -1 Z" fill="rgba(0,64,255,1)" fill-opacity="1" stroke="none" transform="matrix(13.473684310913086,0,0,13.473684310913086,419.5096740722656,604.4902954101562)" clip-path="none">
</path>
<path d="M -1 -1 L 1 -1 L 1 1 L -1 1 L -1 -1 Z" fill="rgba(0,0,0,1)" fill-opacity="1" stroke="none" transform="matrix(13.473684310913086,0,0,13.473684310913086,921.5999755859375,604.4902954101562)" clip-path="none">
</path>
<path d="M -1 -1 L 1 -1 L 1 1 L -1 1 L -1 -1 Z" fill="rgba(0,0,0,1)" fill-opacity="1" stroke="none" transform="matrix(13.473684310913086,0,0,13.473684310913086,102.4000015258789,630.9161376953125)" clip-path="none">
</path>
<path d="M -1 -1 L 1 -1 L 1 1 L -1 1 L -1 -1 Z" fill="rgba(0,0,0,1)" fill-opacity="1" stroke="none" transform="matrix(13.473684310913086,0,0,13.473684310913086,366.6580505371094,630.9161376953125)" clip-path="none">
</path>
<path d="M -1 -1 L 1 -1 L 1 1 L -1 1 L -1 -1 Z" fill="rgba(0,0,0,1)" fill-opacity="1" stroke="none" transform="matrix(13.473684310913086,0,0,13.473684310913086,393.0838623046875,630.9161376953125)" clip-path="none">
</path>
<path d="M -1 -1 L 1 -1 L 1 1 L -1 1 L -1 -1 Z" fill="rgba(0,0,0,1)" fill-opacity="1" stroke="none" transform="matrix(13.473684310913086,0,0,13.473684310913086,419.5096740722656,630.9161376953125)" clip-path="none">
</path>
<path d="M -1 -1 L 1 -1 L 1 1 L -1 1 L -1 -1 Z" fill="rgba(0,64,255,1)" fill-opacity="1" stroke="none" transform="matrix(13.473684310913086,0,0,13.473684310913086,445.93548583984375,630.9161376953125)" clip-path="none">
</path>
<path d="M -1 -1 L 1 -1 L 1 1 L -1 1 L -1 -1 Z" fill="rgba(0,0,0,1)" fill-opacity="1" stroke="none" transform="matrix(13.473684310913086,0,0,13.473684310913086,921.5999755859375,630.9161376953125)" clip-path="none">
</path>
<path d="M -1 -1 L 1 -1 L 1 1 L -1 1 L -1 -1 Z" fill="rgba(0,0,0,1)" fill-opacity="1" stroke="none" transform="matrix(13.473684310913086,0,0,13.473684310913086,102.4000015258789,657.3419189453125)" clip-path="none">
</path>
<path d="M -1 -1 L 1 -1 L 1 1 L -1 1 L -1 -1 Z" fill="rgba(231,76,60,1)" fill-opacity="1" stroke="none" transform="matrix(13.473684310913086,0,0,13.473684310913086,472.3612976074219,657.3419189453125)" clip-path="none">
</path>
<path d="M -1 -1 L 1 -1 L 1 1 L -1 1 L -1 -1 Z" fill="rgba(0,0,0,1)" fill-opacity="1" stroke="none" transform="matrix(13.473684310913086,0,0,13.473684310913086,921.5999755859375,657.3419189453125)" clip-path="none">
</path>
<path d="M -1 -1 L 1 -1 L 1 1 L -1 1 L -1 -1 Z" fill="rgba(0,0,0,1)" fill-opacity="1" stroke="none" transform="matrix(13.473684310913086,0,0,13.473684310913086,102.4000015258789,683.7677612304688)" clip-path="none">
</path>
<path d="M -1 -1 L 1 -1 L 1 1 L -1 1 L -1 -1 Z" fill="rgba(231,76,60,1)" fill-opacity="1" stroke="none" transform="matrix(13.473684310913086,0,0,13.473684310913086,498.7870788574219,683.7677612304688)" clip-path="none">
</path>
<path d="M -1 -1 L 1 -1 L 1 1 L -1 1 L -1 -1 Z" fill="rgba(0,0,0,1)" fill-opacity="1" stroke="none" transform="matrix(13.473684310913086,0,0,13.473684310913086,921.5999755859375,683.7677612304688)" clip-path="none">
</path>
<path d="M -1 -1 L 1 -1 L 1 1 L -1 1 L -1 -1 Z" fill="rgba(0,0,0,1)" fill-opacity="1" stroke="none" transform="matrix(13.473684310913086,0,0,13.473684310913086,102.4000015258789,710.1935424804688)" clip-path="none">
</path>
<path d="M -1 -1 L 1 -1 L 1 1 L -1 1 L -1 -1 Z" fill="rgba(0,64,255,1)" fill-opacity="1" stroke="none" transform="matrix(13.473684310913086,0,0,13.473684310913086,525.212890625,710.1935424804688)" clip-path="none">
</path>
<path d="M -1 -1 L 1 -1 L 1 1 L -1 1 L -1 -1 Z" fill="rgba(231,76,60,1)" fill-opacity="1" stroke="none" transform="matrix(13.473684310913086,0,0,13.473684310913086,551.6387329101562,710.1935424804688)" clip-path="none">
</path>
<path d="M -1 -1 L 1 -1 L 1 1 L -1 1 L -1 -1 Z" fill="rgba(231,76,60,1)" fill-opacity="1" stroke="none" transform="matrix(13.473684310913086,0,0,13.473684310913086,578.0645141601562,710.1935424804688)" clip-path="none">
</path>
<path d="M -1 -1 L 1 -1 L 1 1 L -1 1 L -1 -1 Z" fill="rgba(231,76,60,1)" fill-opacity="1" stroke="none" transform="matrix(13.473684310913086,0,0,13.473684310913086,604.4902954101562,710.1935424804688)" clip-path="none">
</path>
<path d="M -1 -1 L 1 -1 L 1 1 L -1 1 L -1 -1 Z" fill="rgba(231,76,60,1)" fill-opacity="1" stroke="none" transform="matrix(13.473684310913086,0,0,13.473684310913086,630.9161376953125,710.1935424804688)" clip-path="none">
</path>
<path d="M -1 -1 L 1 -1 L 1 1 L -1 1 L -1 -1 Z" fill="rgba(231,76,60,1)" fill-opacity="1" stroke="none" transform="matrix(13.473684310913086,0,0,13.473684310913086,657.3419189453125,710.1935424804688)" clip-path="none">
</path>
<path d="M -1 -1 L 1 -1 L 1 1 L -1 1 L -1 -1 Z" fill="rgba(231,76,60,1)" fill-opacity="1" stroke="none" transform="matrix(13.473684310913086,0,0,13.473684310913086,683.7677612304688,710.1935424804688)" clip-path="none">
</path>
<path d="M -1 -1 L 1 -1 L 1 1 L -1 1 L -1 -1 Z" fill="rgba(231,76,60,1)" fill-opacity="1" stroke="none" transform="matrix(13.473684310913086,0,0,13.473684310913086,710.1935424804688,710.1935424804688)" clip-path="none">
</path>
<path d="M -1 -1 L 1 -1 L 1 1 L -1 1 L -1 -1 Z" fill="rgba(0,0,0,1)" fill-opacity="1" stroke="none" transform="matrix(13.473684310913086,0,0,13.473684310913086,921.5999755859375,710.1935424804688)" clip-path="none">
</path>
<path d="M -1 -1 L 1 -1 L 1 1 L -1 1 L -1 -1 Z" fill="rgba(0,0,0,1)" fill-opacity="1" stroke="none" transform="matrix(13.473684310913086,0,0,13.473684310913086,102.4000015258789,736.6193237304688)" clip-path="none">
</path>
<path d="M -1 -1 L 1 -1 L 1 1 L -1 1 L -1 -1 Z" fill="rgba(0,0,0,1)" fill-opacity="1" stroke="none" transform="matrix(13.473684310913086,0,0,13.473684310913086,921.5999755859375,736.6193237304688)" clip-path="none">
</path>
<path d="M -1 -1 L 1 -1 L 1 1 L -1 1 L -1 -1 Z" fill="rgba(0,0,0,1)" fill-opacity="1" stroke="none" transform="matrix(13.473684310913086,0,0,13.473684310913086,102.4000015258789,763.045166015625)" clip-path="none">
</path>
<path d="M -1 -1 L 1 -1 L 1 1 L -1 1 L -1 -1 Z" fill="rgba(0,0,0,1)" fill-opacity="1" stroke="none" transform="matrix(13.473684310913086,0,0,13.473684310913086,921.5999755859375,763.045166015625)" clip-path="none">
</path>
<path d="M -1 -1 L 1 -1 L 1 1 L -1 1 L -1 -1 Z" fill="rgba(0,0,0,1)" fill-opacity="1" stroke="none" transform="matrix(13.473684310913086,0,0,13.473684310913086,102.4000015258789,789.470947265625)" clip-path="none">
</path>
<path d="M -1 -1 L 1 -1 L 1 1 L -1 1 L -1 -1 Z" fill="rgba(0,0,0,1)" fill-opacity="1" stroke="none" transform="matrix(13.473684310913086,0,0,13.473684310913086,921.5999755859375,789.470947265625)" clip-path="none">
</path>
<path d="M -1 -1 L 1 -1 L 1 1 L -1 1 L -1 -1 Z" fill="rgba(0,0,0,1)" fill-opacity="1" stroke="none" transform="matrix(13.473684310913086,0,0,13.473684310913086,102.4000015258789,815.8967895507812)" clip-path="none">
</path>
<path d="M -1 -1 L 1 -1 L 1 1 L -1 1 L -1 -1 Z" fill="rgba(0,0,0,1)" fill-opacity="1" stroke="none" transform="matrix(13.473684310913086,0,0,13.473684310913086,921.5999755859375,815.8967895507812)" clip-path="none">
</path>
<path d="M -1 -1 L 1 -1 L 1 1 L -1 1 L -1 -1 Z" fill="rgba(0,0,0,1)" fill-opacity="1" stroke="none" transform="matrix(13.473684310913086,0,0,13.473684310913086,102.4000015258789,842.3225708007812)" clip-path="none">
</path>
<path d="M -1 -1 L 1 -1 L 1 1 L -1 1 L -1 -1 Z" fill="rgba(0,0,0,1)" fill-opacity="1" stroke="none" transform="matrix(13.473684310913086,0,0,13.473684310913086,921.5999755859375,842.3225708007812)" clip-path="none">
</path>
<path d="M -1 -1 L 1 -1 L 1 1 L -1 1 L -1 -1 Z" fill="rgba(0,0,0,1)" fill-opacity="1" stroke="none" transform="matrix(13.473684310913086,0,0,13.473684310913086,102.4000015258789,868.7483520507812)" clip-path="none">
</path>
<path d="M -1 -1 L 1 -1 L 1 1 L -1 1 L -1 -1 Z" fill="rgba(0,0,0,1)" fill-opacity="1" stroke="none" transform="matrix(13.473684310913086,0,0,13.473684310913086,921.5999755859375,868.7483520507812)" clip-path="none">
</path>
<path d="M -1 -1 L 1 -1 L 1 1 L -1 1 L -1 -1 Z" fill="rgba(0,0,0,1)" fill-opacity="1" stroke="none" transform="matrix(13.473684310913086,0,0,13.473684310913086,102.4000015258789,895.1741943359375)" clip-path="none">
</path>
<path d="M -1 -1 L 1 -1 L 1 1 L -1 1 L -1 -1 Z" fill="rgba(0,0,0,1)" fill-opacity="1" stroke="none" transform="matrix(13.473684310913086,0,0,13.473684310913086,921.5999755859375,895.1741943359375)" clip-path="none">
</path>
<path d="M -1 -1 L 1 -1 L 1 1 L -1 1 L -1 -1 Z" fill="rgba(0,0,0,1)" fill-opacity="1" stroke="none" transform="matrix(13.473684310913086,0,0,13.473684310913086,102.4000015258789,921.5999755859375)" clip-path="none">
</path>
<path d="M -1 -1 L 1 -1 L 1 1 L -1 1 L -1 -1 Z" fill="rgba(0,0,0,1)" fill-opacity="1" stroke="none" transform="matrix(13.473684310913086,0,0,13.473684310913086,128.8258056640625,921.5999755859375)" clip-path="none">
</path>
<path d="M -1 -1 L 1 -1 L 1 1 L -1 1 L -1 -1 Z" fill="rgba(0,0,0,1)" fill-opacity="1" stroke="none" transform="matrix(13.473684310913086,0,0,13.473684310913086,155.25161743164062,921.5999755859375)" clip-path="none">
</path>
<path d="M -1 -1 L 1 -1 L 1 1 L -1 1 L -1 -1 Z" fill="rgba(0,0,0,1)" fill-opacity="1" stroke="none" transform="matrix(13.473684310913086,0,0,13.473684310913086,181.6774139404297,921.5999755859375)" clip-path="none">
</path>
<path d="M -1 -1 L 1 -1 L 1 1 L -1 1 L -1 -1 Z" fill="rgba(0,0,0,1)" fill-opacity="1" stroke="none" transform="matrix(13.473684310913086,0,0,13.473684310913086,208.1032257080078,921.5999755859375)" clip-path="none">
</path>
<path d="M -1 -1 L 1 -1 L 1 1 L -1 1 L -1 -1 Z" fill="rgba(0,0,0,1)" fill-opacity="1" stroke="none" transform="matrix(13.473684310913086,0,0,13.473684310913086,234.52903747558594,921.5999755859375)" clip-path="none">
</path>
<path d="M -1 -1 L 1 -1 L 1 1 L -1 1 L -1 -1 Z" fill="rgba(0,0,0,1)" fill-opacity="1" stroke="none" transform="matrix(13.473684310913086,0,0,13.473684310913086,260.954833984375,921.5999755859375)" clip-path="none">
</path>
<path d="M -1 -1 L 1 -1 L 1 1 L -1 1 L -1 -1 Z" fill="rgba(0,0,0,1)" fill-opacity="1" stroke="none" transform="matrix(13.473684310913086,0,0,13.473684310913086,287.3806457519531,921.5999755859375)" clip-path="none">
</path>
<path d="M -1 -1 L 1 -1 L 1 1 L -1 1 L -1 -1 Z" fill="rgba(0,0,0,1)" fill-opacity="1" stroke="none" transform="matrix(13.473684310913086,0,0,13.473684310913086,313.80645751953125,921.5999755859375)" clip-path="none">
</path>
<path d="M -1 -1 L 1 -1 L 1 1 L -1 1 L -1 -1 Z" fill="rgba(0,0,0,1)" fill-opacity="1" stroke="none" transform="matrix(13.473684310913086,0,0,13.473684310913086,340.2322692871094,921.5999755859375)" clip-path="none">
</path>
<path d="M -1 -1 L 1 -1 L 1 1 L -1 1 L -1 -1 Z" fill="rgba(0,0,0,1)" fill-opacity="1" stroke="none" transform="matrix(13.473684310913086,0,0,13.473684310913086,366.6580505371094,921.5999755859375)" clip-path="none">
</path>
<path d="M -1 -1 L 1 -1 L 1 1 L -1 1 L -1 -1 Z" fill="rgba(0,0,0,1)" fill-opacity="1" stroke="none" transform="matrix(13.473684310913086,0,0,13.473684310913086,393.0838623046875,921.5999755859375)" clip-path="none">
</path>
<path d="M -1 -1 L 1 -1 L 1 1 L -1 1 L -1 -1 Z" fill="rgba(0,0,0,1)" fill-opacity="1" stroke="none" transform="matrix(13.473684310913086,0,0,13.473684310913086,419.5096740722656,921.5999755859375)" clip-path="none">
</path>
<path d="M -1 -1 L 1 -1 L 1 1 L -1 1 L -1 -1 Z" fill="rgba(0,0,0,1)" fill-opacity="1" stroke="none" transform="matrix(13.473684310913086,0,0,13.473684310913086,445.93548583984375,921.5999755859375)" clip-path="none">
</path>
<path d="M -1 -1 L 1 -1 L 1 1 L -1 1 L -1 -1 Z" fill="rgba(0,0,0,1)" fill-opacity="1" stroke="none" transform="matrix(13.473684310913086,0,0,13.473684310913086,472.3612976074219,921.5999755859375)" clip-path="none">
</path>
<path d="M -1 -1 L 1 -1 L 1 1 L -1 1 L -1 -1 Z" fill="rgba(0,0,0,1)" fill-opacity="1" stroke="none" transform="matrix(13.473684310913086,0,0,13.473684310913086,498.7870788574219,921.5999755859375)" clip-path="none">
</path>
<path d="M -1 -1 L 1 -1 L 1 1 L -1 1 L -1 -1 Z" fill="rgba(0,0,0,1)" fill-opacity="1" stroke="none" transform="matrix(13.473684310913086,0,0,13.473684310913086,525.212890625,921.5999755859375)" clip-path="none">
</path>
<path d="M -1 -1 L 1 -1 L 1 1 L -1 1 L -1 -1 Z" fill="rgba(0,0,0,1)" fill-opacity="1" stroke="none" transform="matrix(13.473684310913086,0,0,13.473684310913086,551.6387329101562,921.5999755859375)" clip-path="none">
</path>
<path d="M -1 -1 L 1 -1 L 1 1 L -1 1 L -1 -1 Z" fill="rgba(0,0,0,1)" fill-opacity="1" stroke="none" transform="matrix(13.473684310913086,0,0,13.473684310913086,578.0645141601562,921.5999755859375)" clip-path="none">
</path>
<path d="M -1 -1 L 1 -1 L 1 1 L -1 1 L -1 -1 Z" fill="rgba(0,0,0,1)" fill-opacity="1" stroke="none" transform="matrix(13.473684310913086,0,0,13.473684310913086,604.4902954101562,921.5999755859375)" clip-path="none">
</path>
<path d="M -1 -1 L 1 -1 L 1 1 L -1 1 L -1 -1 Z" fill="rgba(0,0,0,1)" fill-opacity="1" stroke="none" transform="matrix(13.473684310913086,0,0,13.473684310913086,630.9161376953125,921.5999755859375)" clip-path="none">
</path>
<path d="M -1 -1 L 1 -1 L 1 1 L -1 1 L -1 -1 Z" fill="rgba(0,0,0,1)" fill-opacity="1" stroke="none" transform="matrix(13.473684310913086,0,0,13.473684310913086,657.3419189453125,921.5999755859375)" clip-path="none">
</path>
<path d="M -1 -1 L 1 -1 L 1 1 L -1 1 L -1 -1 Z" fill="rgba(0,0,0,1)" fill-opacity="1" stroke="none" transform="matrix(13.473684310913086,0,0,13.473684310913086,683.7677612304688,921.5999755859375)" clip-path="none">
</path>
<path d="M -1 -1 L 1 -1 L 1 1 L -1 1 L -1 -1 Z" fill="rgba(0,0,0,1)" fill-opacity="1" stroke="none" transform="matrix(13.473684310913086,0,0,13.473684310913086,710.1935424804688,921.5999755859375)" clip-path="none">
</path>
<path d="M -1 -1 L 1 -1 L 1 1 L -1 1 L -1 -1 Z" fill="rgba(0,0,0,1)" fill-opacity="1" stroke="none" transform="matrix(13.473684310913086,0,0,13.473684310913086,736.6193237304688,921.5999755859375)" clip-path="none">
</path>
<path d="M -1 -1 L 1 -1 L 1 1 L -1 1 L -1 -1 Z" fill="rgba(0,0,0,1)" fill-opacity="1" stroke="none" transform="matrix(13.473684310913086,0,0,13.473684310913086,763.045166015625,921.5999755859375)" clip-path="none">
</path>
<path d="M -1 -1 L 1 -1 L 1 1 L -1 1 L -1 -1 Z" fill="rgba(0,0,0,1)" fill-opacity="1" stroke="none" transform="matrix(13.473684310913086,0,0,13.473684310913086,789.470947265625,921.5999755859375)" clip-path="none">
</path>
<path d="M -1 -1 L 1 -1 L 1 1 L -1 1 L -1 -1 Z" fill="rgba(0,0,0,1)" fill-opacity="1" stroke="none" transform="matrix(13.473684310913086,0,0,13.473684310913086,815.8967895507812,921.5999755859375)" clip-path="none">
</path>
<path d="M -1 -1 L 1 -1 L 1 1 L -1 1 L -1 -1 Z" fill="rgba(0,0,0,1)" fill-opacity="1" stroke="none" transform="matrix(13.473684310913086,0,0,13.473684310913086,842.3225708007812,921.5999755859375)" clip-path="none">
</path>
<path d="M -1 -1 L 1 -1 L 1 1 L -1 1 L -1 -1 Z" fill="rgba(0,0,0,1)" fill-opacity="1" stroke="none" transform="matrix(13.473684310913086,0,0,13.473684310913086,868.7483520507812,921.5999755859375)" clip-path="none">
</path>
<path d="M -1 -1 L 1 -1 L 1 1 L -1 1 L -1 -1 Z" fill="rgba(0,0,0,1)" fill-opacity="1" stroke="none" transform="matrix(13.473684310913086,0,0,13.473684310913086,895.1741943359375,921.5999755859375)" clip-path="none">
</path>
<path d="M -1 -1 L 1 -1 L 1 1 L -1 1 L -1 -1 Z" fill="rgba(0,0,0,1)" fill-opacity="1" stroke="none" transform="matrix(13.473684310913086,0,0,13.473684310913086,921.5999755859375,921.5999755859375)" clip-path="none">
</path>
</g>
</svg>